<?xml version="1.0" encoding="UTF-8" standalone="no"?><!DOCTYPE svg PUBLIC "-//W3C//DTD SVG 1.1//EN" "http://www.w3.org/Graphics/SVG/1.1/DTD/svg11.dtd"><svg width="100%" height="100%" viewBox="0 0 1957 1779" version="1.1" xmlns="http://www.w3.org/2000/svg" xmlns:xlink="http://www.w3.org/1999/xlink" xml:space="preserve" xmlns:serif="http://www.serif.com/" style="fill-rule:evenodd;clip-rule:evenodd;stroke-linejoin:round;stroke-miterlimit:2;"><path d="M844.513,825.112c61.894,83.976 130.383,152.284 147.632,241.274c16.742,89.615 -18.264,199.285 -80.157,239.393c-61.894,40.108 -150.676,10.654 -232.356,1.254c-81.172,-9.401 -154.735,0.626 -203.945,-39.482c-49.211,-40.107 -74.07,-130.977 -86.753,-238.14c-13.191,-106.536 -14.205,-229.367 35.005,-313.342c49.211,-83.35 148.647,-128.471 225.761,-100.897c77.621,26.948 132.919,126.591 194.813,209.94Z" style="fill:#815fa1;fill-opacity:0.4;fill-rule:nonzero;"/><path d="M913.626,1087.09c52.134,187.328 -28.276,391.445 -200.582,530.174c-172.307,139.612 -434.743,214.72 -568.17,116.638c-132.543,-98.082 -135.194,-368.471 -55.668,-593.794c79.526,-224.441 241.229,-402.933 414.419,-407.351c173.19,-3.534 357.868,167.005 410.001,354.333Z" style="fill:#e0d7e7;fill-opacity:0.4;fill-rule:nonzero;"/><path d="M1802.77,1055.79c25.815,30.071 47.659,52.482 78.013,81.985c30.071,29.787 68.368,66.098 74.609,105.53c6.241,39.716 -19.858,81.985 -53.9,112.907c-34.042,31.205 -76.027,50.495 -113.19,40.566c-37.162,-10.212 -69.502,-49.361 -100.14,-69.786c-30.922,-20.141 -60.141,-21.276 -83.12,-34.893c-23.262,-13.901 -40.283,-39.999 -55.034,-72.907c-15.036,-32.907 -27.801,-72.907 -16.17,-102.693c11.631,-30.071 47.659,-50.212 82.552,-76.028c34.609,-25.815 67.8,-57.02 99.573,-54.183c31.489,2.837 60.992,39.715 86.807,69.502Z" style="fill:#c0afd0;fill-rule:nonzero;"/><clipPath id="_clip1"><path d="M1802.77,1055.79c25.815,30.071 47.659,52.482 78.013,81.985c30.071,29.787 68.368,66.098 74.609,105.53c6.241,39.716 -19.858,81.985 -53.9,112.907c-34.042,31.205 -76.027,50.495 -113.19,40.566c-37.162,-10.212 -69.502,-49.361 -100.14,-69.786c-30.922,-20.141 -60.141,-21.276 -83.12,-34.893c-23.262,-13.901 -40.283,-39.999 -55.034,-72.907c-15.036,-32.907 -27.801,-72.907 -16.17,-102.693c11.631,-30.071 47.659,-50.212 82.552,-76.028c34.609,-25.815 67.8,-57.02 99.573,-54.183c31.489,2.837 60.992,39.715 86.807,69.502Z" clip-rule="nonzero"/></clipPath><g clip-path="url(#_clip1)"><path d="M1877.83,1080.04c20.113,56.513 -14.549,131.322 -78.311,177.671c-63.762,45.943 -156.624,63.832 -211.827,26.834c-55.203,-36.998 -72.749,-128.07 -46.217,-193.528c26.96,-65.051 97.569,-104.488 169.89,-104.895c72.32,-0.813 146.781,37.405 166.465,93.918Z" style="fill:#e0d7e7;fill-rule:nonzero;"/></g><path d="M236.052,156.387c8.785,23.707 14.55,32.43 43.649,48.31c29.099,16.103 81.258,39.364 87.023,58.151c5.765,18.788 -35.138,32.878 -70.002,49.205c-35.139,16.328 -64.513,34.668 -96.083,37.575c-31.844,2.908 -66.434,-9.617 -99.102,-26.615c-32.942,-16.775 -64.512,-38.022 -82.905,-66.651c-18.119,-28.628 -23.334,-64.861 -14.275,-100.423c9.059,-35.562 32.119,-70.452 67.532,-87.003c35.688,-16.551 83.454,-14.762 113.377,5.368c29.923,19.905 41.727,58.598 50.786,82.083Z" style="fill:#e0d7e7;fill-rule:nonzero;"/><path d="M346.68,82.62c23.893,30.44 41.597,63.355 47.372,98.335c5.504,35.095 -1.289,71.936 -22.981,98.781c-21.635,26.661 -58.383,43.259 -94.665,43.636c-36.554,0.492 -72.43,-15.168 -110.735,-26.146c-38.518,-11.045 -79.194,-17.523 -106.918,-38.875c-27.51,-21.284 -42.069,-57.442 -37.086,-88.594c5.04,-31.336 29.137,-57.618 51.026,-85.815c21.83,-28.014 41.393,-57.759 72.671,-72.662c31.064,-14.971 73.997,-14.848 110.611,-0.771c36.459,13.825 66.599,41.604 90.705,72.111Z" style="fill:#a187b8;fill-rule:nonzero;"/><path d="M1774.79,49.872c30.84,58.488 -46.791,188.759 -156.856,266.921c-110.065,78.162 -252.565,104.748 -330.196,46.791c-77.63,-57.425 -90.923,-199.393 -50.513,-270.643c40.411,-71.782 134.525,-73.377 250.97,-80.821c116.446,-7.444 255.756,-20.737 286.595,37.752Z" style="fill:#e0d7e7;fill-opacity:0.53;fill-rule:nonzero;"/></svg>