<?xml version="1.0" encoding="UTF-8" standalone="no"?><!DOCTYPE svg PUBLIC "-//W3C//DTD SVG 1.1//EN" "http://www.w3.org/Graphics/SVG/1.1/DTD/svg11.dtd"><svg width="100%" height="100%" viewBox="0 0 8152 7411" version="1.1" xmlns="http://www.w3.org/2000/svg" xmlns:xlink="http://www.w3.org/1999/xlink" xml:space="preserve" xmlns:serif="http://www.serif.com/" style="fill-rule:evenodd;clip-rule:evenodd;stroke-linejoin:round;stroke-miterlimit:2;"><path d="M3518.81,3437.97c257.891,349.899 543.262,634.518 615.133,1005.31c69.758,373.4 -76.099,830.358 -333.99,997.474c-257.891,167.116 -627.817,44.39 -968.148,5.222c-338.218,-39.168 -644.728,2.611 -849.773,-164.505c-205.044,-167.116 -308.623,-545.738 -361.47,-992.251c-54.96,-443.902 -59.188,-955.695 145.857,-1305.59c205.044,-347.288 619.361,-535.293 940.668,-420.401c323.421,112.281 553.832,527.46 811.723,874.748Z" style="fill:#815fa1;fill-opacity:0.32;fill-rule:nonzero;"/><path d="M3806.78,4529.53c217.224,780.534 -117.816,1631.02 -835.76,2209.06c-717.943,581.718 -1811.43,894.668 -2367.37,485.992c-552.265,-408.675 -563.31,-1535.3 -231.951,-2474.14c331.358,-935.168 1005.12,-1678.88 1726.75,-1697.29c721.625,-14.727 1491.11,695.853 1708.34,1476.39Z" style="fill:#e0d7e7;fill-opacity:0.45;fill-rule:nonzero;"/><path d="M7511.55,4399.12c107.563,125.294 198.579,218.673 325.054,341.603c125.294,124.111 284.866,275.41 310.871,439.71c26.004,165.482 -82.742,341.603 -224.584,470.442c-141.841,130.022 -316.78,210.399 -471.624,169.029c-154.844,-42.553 -289.594,-205.671 -417.252,-290.776c-128.84,-83.923 -250.587,-88.652 -346.331,-145.388c-96.925,-57.919 -167.846,-166.665 -229.311,-303.779c-62.647,-137.113 -115.837,-303.778 -67.375,-427.889c48.463,-125.294 198.579,-209.217 343.967,-316.781c144.206,-107.563 282.502,-237.585 414.888,-225.765c131.204,11.82 254.133,165.482 361.697,289.594Z" style="fill:#c0afd0;fill-rule:nonzero;"/><clipPath id="_clip1"><path d="M7511.55,4399.12c107.563,125.294 198.579,218.673 325.054,341.603c125.294,124.111 284.866,275.41 310.871,439.71c26.004,165.482 -82.742,341.603 -224.584,470.442c-141.841,130.022 -316.78,210.399 -471.624,169.029c-154.844,-42.553 -289.594,-205.671 -417.252,-290.776c-128.84,-83.923 -250.587,-88.652 -346.331,-145.388c-96.925,-57.919 -167.846,-166.665 -229.311,-303.779c-62.647,-137.113 -115.837,-303.778 -67.375,-427.889c48.463,-125.294 198.579,-209.217 343.967,-316.781c144.206,-107.563 282.502,-237.585 414.888,-225.765c131.204,11.82 254.133,165.482 361.697,289.594Z" clip-rule="nonzero"/></clipPath><g clip-path="url(#_clip1)"><path d="M7824.3,4500.15c83.803,235.472 -60.624,547.177 -326.299,740.298c-265.675,191.427 -652.597,265.965 -882.611,111.806c-230.014,-154.158 -303.119,-533.623 -192.57,-806.365c112.332,-271.047 406.536,-435.369 707.872,-437.063c301.336,-3.388 611.587,155.852 693.608,391.324Z" style="fill:#e0d7e7;fill-rule:nonzero;"/></g><path d="M983.552,651.61c36.603,98.783 60.623,135.128 181.87,201.294c121.247,67.098 338.576,164.017 362.596,242.298c24.021,78.28 -146.411,136.991 -291.678,205.021c-146.411,68.029 -268.802,144.446 -400.343,156.561c-132.685,12.115 -276.809,-40.072 -412.926,-110.898c-137.26,-69.893 -268.801,-158.425 -345.438,-277.71c-75.494,-119.285 -97.227,-270.255 -59.48,-418.429c37.747,-148.175 133.829,-293.553 281.384,-362.515c148.699,-68.961 347.727,-61.506 472.405,22.366c124.678,82.94 173.863,244.162 211.61,342.012Z" style="fill:#e0d7e7;fill-rule:nonzero;"/><path d="M1444.5,344.252c99.553,126.829 173.319,263.977 197.383,409.727c22.932,146.231 -5.371,299.734 -95.758,411.588c-90.144,111.089 -243.26,180.245 -394.437,181.815c-152.309,2.052 -301.789,-63.2 -461.393,-108.939c-160.492,-46.022 -329.976,-73.013 -445.492,-161.979c-114.628,-88.684 -175.288,-239.343 -154.528,-369.144c21.004,-130.566 121.407,-240.074 212.609,-357.562c90.959,-116.724 172.473,-240.664 302.795,-302.759c129.435,-62.379 308.323,-61.866 460.882,-3.213c151.913,57.607 277.497,173.353 377.939,300.466Z" style="fill:#a187b8;fill-rule:nonzero;"/><path d="M7394.95,207.799c128.498,243.703 -194.963,786.496 -653.568,1112.17c-458.605,325.676 -1052.36,436.45 -1375.82,194.962c-323.46,-239.272 -378.847,-830.806 -210.471,-1127.68c168.377,-299.09 560.518,-305.737 1045.71,-336.754c485.191,-31.016 1065.65,-86.404 1194.15,157.3Z" style="fill:#e0d7e7;fill-opacity:0.53;fill-rule:nonzero;"/></svg>