<?xml version="1.0" encoding="UTF-8" standalone="no"?><!DOCTYPE svg PUBLIC "-//W3C//DTD SVG 1.1//EN" "http://www.w3.org/Graphics/SVG/1.1/DTD/svg11.dtd"><svg width="100%" height="100%" viewBox="0 0 5946 3866" version="1.1" xmlns="http://www.w3.org/2000/svg" xmlns:xlink="http://www.w3.org/1999/xlink" xml:space="preserve" xmlns:serif="http://www.serif.com/" style="fill-rule:evenodd;clip-rule:evenodd;stroke-linejoin:round;stroke-miterlimit:2;"><path d="M1109.43,3827.06c-382.205,26.123 -744.111,-210.192 -943.305,-597.839c-200.899,-387.999 -241.493,-924.271 0.819,-1142.74c241.96,-216.768 764.771,-114.383 1167.95,128.658c401.475,242.69 681.613,625.685 621.283,961.638c-62.036,335.603 -464.541,624.163 -846.747,650.287Z" style="fill:#e0d7e7;fill-opacity:0.2;fill-rule:nonzero;"/><path d="M1216.3,3864.03c-382.205,26.124 -744.112,-210.191 -943.305,-597.838c-200.899,-387.999 -241.494,-924.271 0.818,-1142.74c241.961,-216.768 764.772,-114.383 1167.95,128.658c401.475,242.69 681.613,625.685 621.282,961.638c-62.035,335.602 -464.54,624.163 -846.746,650.286Z" style="fill:#e0d7e7;fill-opacity:0.2;fill-rule:nonzero;"/><path d="M1049.92,1378.41c-70.023,63.813 -147.205,112.96 -231.574,133.354c-84.7,19.751 -175.873,9.793 -245.32,-38.344c-68.989,-48.027 -116.125,-134.766 -123.571,-223.286c-7.778,-89.163 24.005,-179.574 43.917,-275.075c20.039,-96.033 28.538,-196.514 75.684,-268.047c47.019,-70.999 132.685,-113.05 209.644,-106.489c77.416,6.671 145.922,60.779 218.706,109.15c72.326,48.261 148.473,90.676 190.487,164.363c42.141,73.154 49.564,178.003 21.78,269.933c-27.198,91.507 -89.603,170.095 -159.753,234.441Z" style="fill:#a187b8;fill-opacity:0.16;fill-rule:nonzero;"/><path d="M1141.55,1443.87c-70.023,63.813 -147.205,112.96 -231.574,133.354c-84.7,19.751 -175.874,9.793 -245.321,-38.343c-68.989,-48.028 -116.124,-134.767 -123.571,-223.287c-7.778,-89.163 24.006,-179.574 43.918,-275.074c20.039,-96.034 28.538,-196.515 75.684,-268.047c47.019,-71 132.685,-113.051 209.643,-106.489c77.417,6.67 145.922,60.778 218.707,109.149c72.326,48.261 148.472,90.677 190.486,164.364c42.141,73.154 49.564,178.003 21.78,269.933c-27.198,91.506 -89.602,170.094 -159.752,234.44Z" style="fill:#a187b8;fill-opacity:0.16;fill-rule:nonzero;"/><path d="M3620.22,556.156c68.62,202.939 -49.639,471.577 -267.178,638.015c-217.538,164.979 -534.355,229.219 -722.694,96.36c-188.338,-132.859 -248.198,-459.897 -157.679,-694.955c91.98,-233.598 332.878,-375.217 579.616,-376.677c246.738,-2.92 500.776,134.319 567.935,337.257Z" style="fill:#e0d7e7;fill-opacity:0.31;fill-rule:nonzero;"/><path d="M3476.22,520.46c68.62,202.939 -49.639,471.577 -267.178,638.015c-217.538,164.979 -534.356,229.219 -722.694,96.36c-188.339,-132.859 -248.198,-459.897 -157.679,-694.955c91.979,-233.598 332.878,-375.217 579.616,-376.677c246.738,-2.92 500.776,134.319 567.935,337.257Z" style="fill:#e0d7e7;fill-opacity:0.49;fill-rule:nonzero;"/><path d="M3873.38,2411.76c55.949,41.698 116.648,69.672 151.484,118.232c34.836,48.559 43.809,116.648 15.307,166.263c-27.974,49.088 -93.952,79.701 -132.483,144.095c-39.059,64.922 -50.671,163.625 -93.952,191.599c-42.753,27.975 -116.12,-14.251 -202.155,-32.197c-86.035,-17.418 -184.209,-9.501 -206.378,-55.949c-22.168,-46.976 32.197,-147.79 35.892,-231.185c3.695,-83.396 -43.281,-149.901 -38.531,-206.378c4.75,-56.477 60.171,-102.925 120.871,-141.984c60.699,-39.058 126.677,-70.728 184.737,-59.116c58.588,11.085 109.259,65.45 165.208,106.62Z" style="fill:#c0afd0;fill-opacity:0.11;fill-rule:nonzero;"/><path d="M4025.6,2457.43c55.949,41.698 116.648,69.672 151.484,118.232c34.837,48.559 43.809,116.648 15.307,166.263c-27.974,49.087 -93.952,79.701 -132.483,144.095c-39.058,64.922 -50.671,163.624 -93.952,191.599c-42.753,27.974 -116.12,-14.251 -202.155,-32.197c-86.035,-17.418 -184.209,-9.501 -206.378,-55.949c-22.168,-46.976 32.197,-147.79 35.892,-231.185c3.695,-83.396 -43.281,-149.901 -38.531,-206.378c4.75,-56.477 60.172,-102.925 120.871,-141.984c60.699,-39.059 126.677,-70.728 184.737,-59.116c58.588,11.084 109.259,65.45 165.208,106.62Z" style="fill:#c0afd0;fill-opacity:0.11;fill-rule:nonzero;"/><path d="M4901.45,241.024c62.572,88.785 96.587,139.428 153.902,194.167c57.128,53.923 137.743,112.757 173.937,199.015c37.198,86.886 30.163,202.013 -24.284,297.956c-53.629,95.755 -154.669,172.328 -282.523,237.014c-128.858,64.058 -285.534,115.601 -396.806,65.543c-111.459,-50.874 -177.326,-202.533 -194.524,-337.019c-18.203,-135.114 13.078,-253.242 18.234,-376.534c5.784,-124.298 -13.929,-254.765 32.733,-358.375c47.291,-104.615 160.14,-182.186 262.758,-158.513c102.618,23.673 194.188,148.778 256.573,236.746Z" style="fill:#e0d7e7;fill-opacity:0.16;fill-rule:nonzero;"/><path d="M5019.27,306.478c62.572,88.784 96.587,139.428 153.902,194.167c57.127,53.922 137.743,112.756 173.937,199.014c37.198,86.887 30.162,202.013 -24.284,297.956c-53.629,95.756 -154.67,172.328 -282.523,237.014c-128.858,64.058 -285.534,115.601 -396.806,65.543c-111.459,-50.874 -177.326,-202.533 -194.524,-337.018c-18.203,-135.114 13.078,-253.242 18.234,-376.535c5.784,-124.297 -13.929,-254.764 32.733,-358.375c47.29,-104.615 160.14,-182.185 262.758,-158.512c102.618,23.673 194.188,148.777 256.573,236.746Z" style="fill:#e0d7e7;fill-opacity:0.16;fill-rule:nonzero;"/><path d="M5676.79,2544.25c-19.702,103.495 -19.169,145.637 38.957,252.208c57.685,107.415 172.121,278.819 152.832,358.914c-19.289,80.095 -172.705,67.598 -311.97,73.225c-140.109,5.187 -266.472,27.214 -369.188,-12.476c-103.56,-40.131 -185.161,-142.861 -252.049,-259.376c-68.171,-116.112 -123.316,-246.889 -123.443,-384.355c0.717,-137.026 56.05,-282.025 153.917,-401.589c97.868,-119.564 237.427,-214.133 378.82,-219.723c142.237,-5.149 285.463,78.241 337.751,202.158c52.727,123.074 12.791,287.922 -5.627,391.014Z" style="fill:#e0d7e7;fill-opacity:0.35;fill-rule:nonzero;"/><path d="M5731.53,2746.66c-21.733,114.166 -21.145,160.654 42.974,278.214c63.633,118.49 189.868,307.567 168.59,395.92c-21.277,88.354 -190.511,74.568 -344.137,80.776c-108.718,108.718 -293.947,30.02 -407.255,-13.763c-114.237,-44.269 -204.252,-157.591 -278.037,-286.12c-75.201,-128.084 -136.032,-272.345 -136.171,-423.986c0.791,-151.154 61.829,-311.104 169.787,-442.996c107.959,-131.892 261.908,-236.213 417.88,-242.379c156.903,-5.68 314.898,86.308 372.576,223.003c58.164,135.764 14.11,317.609 -6.207,431.331Z" style="fill:#e0d7e7;fill-opacity:0.35;fill-rule:nonzero;"/></svg>